<?xml version="1.0" encoding="UTF-8"?>
<svg width="700pt" height="700pt" version="1.1" viewBox="0 0 700 700" xmlns="http://www.w3.org/2000/svg" xmlns:xlink="http://www.w3.org/1999/xlink">
 <defs>
  <symbol id="o" overflow="visible">
   <path d="m29.312-1.75c-1.5117 0.78125-3.0898 1.3711-4.7344 1.7656-1.6367 0.40625-3.3398 0.60938-5.1094 0.60938-5.3125 0-9.5273-1.4844-12.641-4.4531-3.1055-2.9688-4.6562-7-4.6562-12.094s1.5508-9.125 4.6562-12.094c3.1133-2.9688 7.3281-4.4531 12.641-4.4531 1.7695 0 3.4727 0.19922 5.1094 0.59375 1.6445 0.39844 3.2227 0.99219 4.7344 1.7812v6.5938c-1.5312-1.0391-3.0391-1.8008-4.5156-2.2812-1.4805-0.48828-3.0391-0.73438-4.6719-0.73438-2.9375 0-5.2461 0.94531-6.9219 2.8281-1.6797 1.875-2.5156 4.4648-2.5156 7.7656 0 3.293 0.83594 5.8828 2.5156 7.7656 1.6758 1.875 3.9844 2.8125 6.9219 2.8125 1.6328 0 3.1914-0.23828 4.6719-0.71875 1.4766-0.48828 2.9844-1.2539 4.5156-2.2969z"/>
  </symbol>
  <symbol id="c" overflow="visible">
   <path d="m21.453-17.406c-0.67969-0.3125-1.3516-0.53906-2.0156-0.6875-0.65625-0.15625-1.3203-0.23438-1.9844-0.23438-1.9688 0-3.4844 0.63281-4.5469 1.8906-1.0547 1.2617-1.5781 3.0703-1.5781 5.4219v11.016h-7.6562v-23.922h7.6562v3.9219c0.97656-1.5625 2.1016-2.7031 3.375-3.4219 1.2812-0.71875 2.8125-1.0781 4.5938-1.0781 0.25 0 0.52344 0.011719 0.82812 0.03125 0.30078 0.023438 0.73438 0.070312 1.2969 0.14062z"/>
  </symbol>
  <symbol id="b" overflow="visible">
   <path d="m27.562-12.031v2.1875h-17.891c0.1875 1.793 0.83203 3.1367 1.9375 4.0312 1.1133 0.89844 2.6719 1.3438 4.6719 1.3438 1.6016 0 3.25-0.23438 4.9375-0.70312 1.6875-0.47656 3.4219-1.2031 5.2031-2.1719v5.8906c-1.8047 0.6875-3.6094 1.2031-5.4219 1.5469-1.8125 0.35156-3.6211 0.53125-5.4219 0.53125-4.3359 0-7.7031-1.0977-10.109-3.2969-2.3984-2.207-3.5938-5.2969-3.5938-9.2656 0-3.9062 1.1758-6.9727 3.5312-9.2031 2.3633-2.2383 5.6094-3.3594 9.7344-3.3594 3.7578 0 6.7695 1.1367 9.0312 3.4062 2.2578 2.2617 3.3906 5.2812 3.3906 9.0625zm-7.8594-2.5312c0-1.457-0.42969-2.6289-1.2812-3.5156-0.84375-0.89453-1.9492-1.3438-3.3125-1.3438-1.4922 0-2.6992 0.41797-3.625 1.25-0.91797 0.83594-1.4922 2.0391-1.7188 3.6094z"/>
  </symbol>
  <symbol id="a" overflow="visible">
   <path d="m14.391-10.766c-1.5938 0-2.793 0.27344-3.5938 0.8125-0.80469 0.54297-1.2031 1.3398-1.2031 2.3906 0 0.96875 0.32031 1.7305 0.96875 2.2812 0.64453 0.54297 1.5469 0.8125 2.7031 0.8125 1.4375 0 2.6445-0.51562 3.625-1.5469 0.98828-1.0312 1.4844-2.3203 1.4844-3.875v-0.875zm11.688-2.8906v13.656h-7.7031v-3.5469c-1.0312 1.4492-2.1875 2.5078-3.4688 3.1719s-2.8398 1-4.6719 1c-2.4805 0-4.4961-0.72266-6.0469-2.1719-1.543-1.4453-2.3125-3.3203-2.3125-5.625 0-2.8125 0.96094-4.8672 2.8906-6.1719 1.9375-1.3125 4.9688-1.9688 9.0938-1.9688h4.5156v-0.60938c0-1.207-0.48047-2.0938-1.4375-2.6562-0.94922-0.5625-2.4375-0.84375-4.4688-0.84375-1.6367 0-3.1562 0.16797-4.5625 0.5-1.4062 0.32422-2.7188 0.8125-3.9375 1.4688v-5.8281c1.6445-0.40625 3.2891-0.70703 4.9375-0.90625 1.6562-0.20703 3.3047-0.3125 4.9531-0.3125 4.3203 0 7.4375 0.85547 9.3438 2.5625 1.9141 1.6992 2.875 4.4609 2.875 8.2812z"/>
  </symbol>
  <symbol id="i" overflow="visible">
   <path d="m12.031-30.719v6.7969h7.875v5.4688h-7.875v10.141c0 1.1172 0.21875 1.8711 0.65625 2.2656 0.4375 0.38672 1.3125 0.57812 2.625 0.57812h3.9375v5.4688h-6.5625c-3.0234 0-5.1641-0.62891-6.4219-1.8906-1.2617-1.2578-1.8906-3.3984-1.8906-6.4219v-10.141h-3.7969v-5.4688h3.7969v-6.7969z"/>
  </symbol>
  <symbol id="h" overflow="visible">
   <path d="m19.953-20.422v-12.812h7.6875v33.234h-7.6875v-3.4531c-1.0547 1.4062-2.2148 2.4375-3.4844 3.0938-1.2734 0.65625-2.7422 0.98438-4.4062 0.98438-2.9492 0-5.3711-1.1719-7.2656-3.5156-1.8867-2.3438-2.8281-5.3594-2.8281-9.0469s0.94141-6.7031 2.8281-9.0469c1.8945-2.3438 4.3164-3.5156 7.2656-3.5156 1.6562 0 3.1172 0.33594 4.3906 1 1.2812 0.65625 2.4453 1.6836 3.5 3.0781zm-5.0469 15.484c1.6445 0 2.8945-0.59766 3.75-1.7969 0.86328-1.1953 1.2969-2.9297 1.2969-5.2031 0-2.2812-0.43359-4.0195-1.2969-5.2188-0.85547-1.1953-2.1055-1.7969-3.75-1.7969-1.625 0-2.8711 0.60156-3.7344 1.7969-0.85547 1.1992-1.2812 2.9375-1.2812 5.2188 0 2.2734 0.42578 4.0078 1.2812 5.2031 0.86328 1.1992 2.1094 1.7969 3.7344 1.7969z"/>
  </symbol>
  <symbol id="g" overflow="visible">
   <path d="m16.406-4.9375c1.6328 0 2.8828-0.59766 3.75-1.7969 0.86328-1.1953 1.2969-2.9297 1.2969-5.2031 0-2.2812-0.43359-4.0195-1.2969-5.2188-0.86719-1.1953-2.1172-1.7969-3.75-1.7969-1.6367 0-2.8906 0.60547-3.7656 1.8125-0.875 1.1992-1.3125 2.9336-1.3125 5.2031 0 2.2617 0.4375 3.9961 1.3125 5.2031 0.875 1.1992 2.1289 1.7969 3.7656 1.7969zm-5.0781-15.484c1.0508-1.3945 2.2188-2.4219 3.5-3.0781 1.2812-0.66406 2.7539-1 4.4219-1 2.9453 0 5.3672 1.1719 7.2656 3.5156 1.8945 2.3438 2.8438 5.3594 2.8438 9.0469s-0.94922 6.7031-2.8438 9.0469c-1.8984 2.3438-4.3203 3.5156-7.2656 3.5156-1.668 0-3.1406-0.33594-4.4219-1s-2.4492-1.6914-3.5-3.0781v3.4531h-7.6562v-33.234h7.6562z"/>
  </symbol>
  <symbol id="f" overflow="visible">
   <path d="m0.53125-23.922h7.6562l6.4219 16.234 5.4688-16.234h7.6562l-10.062 26.188c-1.0117 2.6641-2.1953 4.5234-3.5469 5.5781-1.3438 1.0625-3.1211 1.5938-5.3281 1.5938h-4.4219v-5.0156h2.3906c1.3008 0 2.2422-0.21094 2.8281-0.625 0.59375-0.40625 1.0547-1.1484 1.3906-2.2188l0.20312-0.65625z"/>
  </symbol>
  <symbol id="e" overflow="visible">
   <path d="m12.234-25.672v19.453h2.9531c3.3633 0 5.9297-0.83203 7.7031-2.5 1.7695-1.6641 2.6562-4.0859 2.6562-7.2656 0-3.1562-0.88672-5.5547-2.6562-7.2031-1.7617-1.6562-4.3281-2.4844-7.7031-2.4844zm-8.2188-6.2188h8.6719c4.8438 0 8.4453 0.34375 10.812 1.0312 2.375 0.6875 4.4102 1.8594 6.1094 3.5156 1.4883 1.4375 2.5977 3.1016 3.3281 4.9844 0.72656 1.875 1.0938 4 1.0938 6.375 0 2.4062-0.36719 4.5586-1.0938 6.4531-0.73047 1.8867-1.8398 3.5469-3.3281 4.9844-1.7109 1.6484-3.7617 2.8203-6.1562 3.5156-2.3984 0.6875-5.9844 1.0312-10.766 1.0312h-8.6719z"/>
  </symbol>
  <symbol id="n" overflow="visible">
   <path d="m3.6719-33.234h7.6562v33.234h-7.6562z"/>
  </symbol>
  <symbol id="m" overflow="visible">
   <path d="m1.5312-23.922h7.4375l4.0156 16.484 4.0469-16.484h6.375l4.0156 16.312 4.0469-16.312h7.4375l-6.3125 23.922h-8.3438l-4.0469-16.453-4.0156 16.453h-8.3438z"/>
  </symbol>
  <symbol id="l" overflow="visible">
   <path d="m4.0156-31.891h8.2188v12.156h12.141v-12.156h8.2188v31.891h-8.2188v-13.516h-12.141v13.516h-8.2188z"/>
  </symbol>
  <symbol id="k" overflow="visible">
   <path d="m15.062-19.031c-1.6992 0-2.9961 0.60938-3.8906 1.8281-0.88672 1.2188-1.3281 2.9766-1.3281 5.2656 0 2.293 0.44141 4.0469 1.3281 5.2656 0.89453 1.2188 2.1914 1.8281 3.8906 1.8281 1.6641 0 2.9375-0.60938 3.8125-1.8281 0.88281-1.2188 1.3281-2.9727 1.3281-5.2656 0-2.2891-0.44531-4.0469-1.3281-5.2656-0.875-1.2188-2.1484-1.8281-3.8125-1.8281zm0-5.4688c4.1133 0 7.3281 1.1094 9.6406 3.3281s3.4688 5.2969 3.4688 9.2344c0 3.9297-1.1562 7.0078-3.4688 9.2344-2.3125 2.2188-5.5273 3.3281-9.6406 3.3281-4.1367 0-7.3711-1.1094-9.7031-3.3281-2.3242-2.2266-3.4844-5.3047-3.4844-9.2344 0-3.9375 1.1602-7.0156 3.4844-9.2344 2.332-2.2188 5.5664-3.3281 9.7031-3.3281z"/>
  </symbol>
  <symbol id="d" overflow="visible">
   <path d="m22.359-23.172v5.7969c-1.6367-0.67578-3.2148-1.1875-4.7344-1.5312-1.5234-0.34375-2.9609-0.51562-4.3125-0.51562-1.4609 0-2.543 0.18359-3.25 0.54688-0.69922 0.36719-1.0469 0.92188-1.0469 1.6719 0 0.61719 0.26562 1.0898 0.79688 1.4219 0.53125 0.32422 1.4883 0.5625 2.875 0.71875l1.3438 0.1875c3.9141 0.5 6.5508 1.3242 7.9062 2.4688 1.3516 1.1367 2.0312 2.9219 2.0312 5.3594 0 2.5547-0.94531 4.4688-2.8281 5.75-1.875 1.2812-4.6797 1.9219-8.4062 1.9219-1.5859 0-3.2188-0.125-4.9062-0.375s-3.4219-0.625-5.2031-1.125v-5.8125c1.5195 0.74219 3.082 1.2969 4.6875 1.6719 1.6016 0.36719 3.2344 0.54688 4.8906 0.54688 1.4883 0 2.6094-0.20312 3.3594-0.60938 0.75781-0.41406 1.1406-1.0312 1.1406-1.8438 0-0.6875-0.26172-1.1953-0.78125-1.5312-0.52344-0.33203-1.5586-0.59375-3.1094-0.78125l-1.3438-0.17188c-3.4062-0.42578-5.793-1.2109-7.1562-2.3594-1.3672-1.1562-2.0469-2.9102-2.0469-5.2656 0-2.5312 0.86719-4.4062 2.6094-5.625 1.7383-1.2266 4.3984-1.8438 7.9844-1.8438 1.4062 0 2.8828 0.10938 4.4375 0.32812 1.5508 0.21094 3.2383 0.54297 5.0625 1z"/>
  </symbol>
  <symbol id="j" overflow="visible">
   <path d="m3.6719-23.922h7.6562v23.922h-7.6562zm0-9.3125h7.6562v6.2344h-7.6562z"/>
  </symbol>
 </defs>
 <g>
  <path d="m350 15.961c-145.59 0-264.03 118.45-264.03 264.04s118.45 264.04 264.03 264.04 264.03-118.45 264.03-264.04-118.44-264.04-264.03-264.04zm-19.992 18.934h9.8008l20.414 33.312-0.003906-33.312h9.3555v49.883h-10.105l-20.109-32.531v32.531h-9.3555zm-178.43 261.88h-10.688l-9.9414-37.293-9.9062 37.293h-10.906l-11.91-49.883h10.309l7.5156 34.266 9.1172-34.266h11.98l8.7422 34.844 7.6562-34.844h10.141zm215.88 226.72c-1.582 2.4922-3.832 4.3477-6.7383 5.5664-2.9062 1.2148-6.5195 1.8203-10.859 1.8203-6.3086 0-11.148-1.4609-14.535-4.375-3.3789-2.9141-5.3984-7.168-6.0547-12.738l9.8008-0.95312c0.58594 3.2891 1.7852 5.7031 3.5859 7.2461 1.8008 1.5391 4.2344 2.3086 7.2969 2.3086 3.2461 0 5.6875-0.68359 7.332-2.0547 1.6445-1.375 2.4688-2.9766 2.4688-4.8125 0-1.1797-0.35156-2.1875-1.043-3.0117-0.69141-0.83203-1.8984-1.5469-3.6211-2.1602-1.1797-0.41016-3.8672-1.1367-8.0664-2.1797-5.3984-1.3398-9.1875-2.9844-11.367-4.9336-3.0625-2.7461-4.5938-6.0898-4.5938-10.035 0-2.5391 0.71875-4.918 2.1602-7.1328 1.4453-2.2148 3.5156-3.8945 6.2305-5.0469 2.7109-1.1562 5.9844-1.7344 9.8164-1.7344 6.2656 0 10.973 1.375 14.141 4.1211 3.168 2.7461 4.8281 6.4141 4.9883 10.988l-10.07 0.44531c-0.42969-2.5625-1.3555-4.4102-2.7734-5.5312-1.418-1.1211-3.543-1.6875-6.3789-1.6875-2.9219 0-5.2148 0.60547-6.8789 1.8008-1.0664 0.76953-1.6016 1.8008-1.6016 3.0977 0 1.1797 0.5 2.1875 1.4961 3.0273 1.2695 1.0664 4.3594 2.1797 9.2578 3.332 4.8984 1.1562 8.5234 2.3555 10.875 3.5859 2.3438 1.2344 4.1836 2.9219 5.5117 5.0742 1.3281 2.1445 1.9844 4.7969 1.9844 7.9453 0.015626 2.8555-0.78125 5.5312-2.3633 8.0273zm-17.457-61.539c-100.33 0-181.96-81.629-181.96-181.96s81.629-181.96 181.96-181.96 181.96 81.629 181.96 181.96-81.629 181.96-181.96 181.96zm201.37-165.18v-49.883h36.984v8.4453h-26.914v11.059h25.043v8.3984h-25.043v13.578h27.867v8.4102h-37.938z"/>
  <path d="m497.91 278.8c-35.648-11.883-71.297-23.773-106.98-35.578-2.3203-0.76172-3.4922-1.9531-4.2539-4.2539-11.805-35.672-23.695-71.32-35.578-106.98-0.25391-0.76172-0.64844-1.4805-1.1562-2.625-0.47266 1.3281-0.78906 2.1445-1.0664 2.9766-11.828 35.465-23.688 70.91-35.422 106.41-0.83984 2.5547-2.1523 3.7461-4.6562 4.5664-35.488 11.742-70.945 23.59-106.4 35.43-0.84766 0.28125-1.6523 0.64844-3.0117 1.1992 1.5039 0.52344 2.3359 0.8125 3.168 1.0938 35.648 11.883 71.297 23.773 106.96 35.629 1.7852 0.59375 2.9492 1.3828 3.6055 3.3789 10.875 32.875 21.859 65.723 32.812 98.57 1.2617 3.7812 2.5469 7.543 4.0508 12.016 0.59375-1.6172 0.94531-2.4922 1.2422-3.3789 11.805-35.367 23.633-70.727 35.352-106.12 0.82422-2.4844 2.0195-3.832 4.5781-4.6719 35.488-11.734 70.945-23.59 106.41-35.422 0.86719-0.28906 1.707-0.66406 3.0352-1.1992-1.2695-0.5-1.9688-0.79688-2.6953-1.043zm-100 1.5312c-11.516 3.8398-23.02 7.6914-34.535 11.496-0.83203 0.26953-1.2148 0.70703-1.4883 1.5156-3.7969 11.488-7.6406 22.969-11.473 34.449-0.10547 0.28906-0.21094 0.57812-0.40234 1.1016-0.48828-1.4531-0.91016-2.6758-1.3125-3.9023-3.5625-10.668-7.1211-21.324-10.656-32-0.21875-0.64844-0.59375-0.91016-1.1719-1.0938-11.578-3.8516-23.152-7.707-34.719-11.566-0.26953-0.085937-0.54297-0.19141-1.0312-0.35938 0.4375-0.17578 0.70703-0.29688 0.98047-0.39453 11.508-3.8398 23.02-7.6914 34.535-11.496 0.8125-0.26172 1.2422-0.65625 1.5156-1.4883 3.8047-11.516 7.6562-23.031 11.496-34.535 0.085938-0.26953 0.19141-0.54297 0.33984-0.96094 0.16797 0.36719 0.28906 0.60547 0.375 0.84766 3.8594 11.578 7.7188 23.145 11.559 34.73 0.24609 0.74219 0.62891 1.1289 1.3828 1.3828 11.586 3.832 23.152 7.6914 34.73 11.551 0.23438 0.078125 0.46484 0.17578 0.875 0.33203-0.44922 0.17188-0.71875 0.29297-1 0.39062z"/>
  <path d="m283.82 241.79c-9.3555-18.699-18.543-37.074-28.141-56.262 19.152 9.5742 37.555 18.77 56.289 28.141-3.1406 6.2383-6.1758 12.285-9.25 18.297-0.20312 0.39453-0.68359 0.71875-1.1094 0.92578-5.793 2.9141-11.605 5.8086-17.789 8.8984z"/>
  <path d="m416.27 241.78c-6.0898-3.0469-11.82-5.8906-17.516-8.793-0.66406-0.33203-1.3555-0.91016-1.6875-1.5469-2.957-5.7852-5.8281-11.602-8.918-17.789 18.559-9.2852 36.996-18.508 56.262-28.148-9.6172 19.238-18.852 37.699-28.141 56.277z"/>
  <path d="m283.82 317.96c6.2305 3.125 12.199 6.1094 18.148 9.125 0.40234 0.21094 0.76953 0.64062 0.98828 1.0586 2.9648 5.8711 5.8984 11.77 8.9961 17.945-18.602 9.3008-37.031 18.523-56.262 28.141 9.5859-19.188 18.801-37.605 28.129-56.27z"/>
  <path d="m388.13 346.11c3.0977-6.1875 6.0195-12.074 8.9961-17.938 0.24609-0.48828 0.73438-0.97266 1.2266-1.2148 5.8633-2.9648 11.75-5.8984 17.91-8.9766 9.3281 18.645 18.531 37.055 28.133 56.262-19.141-9.5742-37.496-18.742-56.266-28.133z"/>
  <use x="70" y="691.25" xlink:href="#o"/>
  <use x="102.109375" y="691.25" xlink:href="#c"/>
  <use x="123.683594" y="691.25" xlink:href="#b"/>
  <use x="153.355469" y="691.25" xlink:href="#a"/>
  <use x="182.878906" y="691.25" xlink:href="#i"/>
  <use x="203.792969" y="691.25" xlink:href="#b"/>
  <use x="233.464844" y="691.25" xlink:href="#h"/>
  <use x="280.011719" y="691.25" xlink:href="#g"/>
  <use x="311.328125" y="691.25" xlink:href="#f"/>
  <use x="355.078125" y="691.25" xlink:href="#e"/>
  <use x="391.394531" y="691.25" xlink:href="#b"/>
  <use x="421.066406" y="691.25" xlink:href="#n"/>
  <use x="436.0625" y="691.25" xlink:href="#m"/>
  <use x="476.480469" y="691.25" xlink:href="#a"/>
  <use x="506.003906" y="691.25" xlink:href="#c"/>
  <use x="542.8125" y="691.25" xlink:href="#l"/>
  <use x="579.425781" y="691.25" xlink:href="#k"/>
  <use x="609.484375" y="691.25" xlink:href="#d"/>
  <use x="635.523438" y="691.25" xlink:href="#d"/>
  <use x="661.566406" y="691.25" xlink:href="#a"/>
  <use x="691.085938" y="691.25" xlink:href="#j"/>
 </g>
</svg>
